Coordinates
version=1
nRows=24
nColumns=24
inDegrees=yes

Units are S.I. units (second, meters, Newtons, ...)
Angles are in degrees.

endheader
time	pelvis_tilt	pelvis_list	pelvis_rotation	pelvis_tx	pelvis_ty	pelvis_tz	hip_flexion_r	hip_adduction_r	hip_rotation_r	knee_angle_r	ankle_angle_r	subtalar_angle_r	mtp_angle_r	hip_flexion_l	hip_adduction_l	hip_rotation_l	knee_angle_l	ankle_angle_l	subtalar_angle_l	mtp_angle_l	lumbar_extension	lumbar_bending	lumbar_rotation
      1.25800000	      0.31056286	      2.89462277	      0.37882091	      0.23592304	      1.03434963	      0.27503149	     16.73771920	     -5.34065553	     -9.48840814	    -62.34912511	      3.26667903	     -8.89611609	      5.86735676	      7.18770214	      7.45733854	      3.83268045	     -9.83430745	      3.78286448	    -10.30196126	      2.06952584	     -7.95394074	     -5.05759342	      0.47254640
      1.26216667	      0.25479352	      2.70479753	      0.33214124	      0.24088348	      1.03518086	      0.27477729	     17.31317997	     -5.11946768	     -9.43749755	    -61.79719021	      3.46838929	     -9.12297546	      5.75226018	      6.75438061	      7.25563143	      3.89012512	     -9.46191260	      3.81988331	    -10.31957243	      2.04036250	     -7.93996342	     -4.76808933	      0.47281764
      1.26633333	      0.20495346	      2.52800612	      0.27771485	      0.24588074	      1.03597337	      0.27455238	     17.86350938	     -4.90784441	     -9.37843411	    -61.19406014	      3.74611164	     -9.27456630	      5.69703142	      6.31987665	      7.06202485	      3.88673271	     -9.10370897	      3.87020475	    -10.30773407	      2.02493995	     -7.90078541	     -4.52847474	      0.46007101
      1.27050000	      0.14682042	      2.35062311	      0.22599285	      0.25084884	      1.03671808	      0.27433197	     18.40791772	     -4.68850045	     -9.31266108	    -60.52921761	      3.96509196	     -9.42068313	      5.63579472	      5.89731503	      6.86983806	      3.90161112	     -8.74581711	      3.92394565	    -10.30204307	      2.00771943	     -7.86767605	     -4.27451576	      0.45332336
      1.27466667	      0.11652668	      2.16356757	      0.17842984	      0.25582325	      1.03749108	      0.27412339	     18.89512830	     -4.44891086	     -9.24650472	    -59.78193972	      4.05153260	     -9.64129560	      5.43247585	      5.43199751	      6.67087646	      3.99375741	     -8.36607088	      3.95673453	    -10.36350212	      1.94903723	     -7.87524297	     -4.01265709	      0.46231541
      1.27883333	      0.08614516	      1.99492689	      0.11481949	      0.26078280	      1.03821438	      0.27394386	     19.37371493	     -4.22050362	     -9.15013346	    -59.00252973	      4.27281509	     -9.69656405	      3.91680438	      4.95592596	      6.49606742	      4.11956070	     -7.95275479	      3.84264529	    -10.65414657	      1.47666353	     -7.87929064	     -3.78814259	      0.44503983
      1.28300000	      0.02584759	      1.81119835	      0.07910677	      0.26573240	      1.03883608	      0.27372668	     19.86064005	     -3.98171510	     -9.08565135	    -58.16435928	      4.46367635	     -9.78055555	      3.88250987	      4.56206393	      6.29699891	      4.11968458	     -7.65071288	      3.97944300	    -10.56696590	      1.46774554	     -7.84878242	     -3.50812275	      0.44460774
      1.28716667	      0.02832973	      1.61689320	      0.04080199	      0.27067423	      1.03954308	      0.27354303	     20.24800135	     -3.71792210	     -9.00871470	    -57.23199850	      4.49433113	     -9.94384270	      3.77783395	      4.09176004	      6.08481030	      4.14474657	     -7.32785450	      4.07946229	    -10.50358826	      1.43525715	     -7.90804219	     -3.25690895	      0.44627667
      1.29133333	     -0.04332520	      1.46093923	     -0.01012987	      0.27561170	      1.04003323	      0.27336006	     20.71966239	     -3.49783343	     -8.91191643	    -56.30096018	      4.63262004	     -9.97538670	      3.73611563	      3.71210020	      5.91693587	      4.14057482	     -7.02064802	      4.15053994	    -10.49714893	      1.42083270	     -7.86048214	     -3.01690882	      0.43411905
      1.29550000	     -0.00980390	      1.27786706	     -0.03941198	      0.28053616	      1.04069674	      0.27318521	     21.03033942	     -3.24108502	     -8.83382757	    -55.25434872	      4.60378367	    -10.13361119	      3.60627804	      3.20596593	      5.72178576	      4.23066055	     -6.68846773	      4.20263171	    -10.55757866	      1.37514687	     -7.95706665	     -2.77904880	      0.42966877
      1.29966667	     -0.07017787	      1.10605731	     -0.06740902	      0.28545194	      1.04114017	      0.27299788	     21.43537218	     -2.99726773	     -8.74612358	    -54.18597500	      4.65681837	    -10.17338300	      3.52754265	      2.83103082	      5.53929667	      4.26770229	     -6.41489253	      4.25812754	    -10.60318956	      1.34581130	     -7.93353273	     -2.53785822	      0.41658345
      1.30383333	     -0.07206220	      0.96500265	     -0.10685623	      0.29039499	      1.04162819	      0.27283650	     21.75643117	     -2.78260955	     -8.64804602	    -53.06345183	      4.61521117	    -10.30104889	      3.05493167	      2.34966147	      5.39637134	      4.41853955	     -6.04929429	      4.20261001	    -10.87670689	      1.15517768	     -7.95960899	     -2.33796612	      0.37767793
      1.30800000	     -0.12462566	      0.81789514	     -0.12005798	      0.29528171	      1.04196481	      0.27264236	     22.11507008	     -2.56729597	     -8.56382300	    -51.90087987	      4.61316202	    -10.33809908	      2.98455973	      1.98604374	      5.24131091	      4.46175356	     -5.81505666	      4.32312283	    -10.84993856	      1.13040471	     -7.96391197	     -2.11857709	      0.37212978
      1.31216667	     -0.11876204	      0.68378706	     -0.13962613	      0.30018776	      1.04236017	      0.27247878	     22.38343534	     -2.35906476	     -8.47572439	    -50.66745658	      4.47519329	    -10.51039489	      2.85292492	      1.53349937	      5.10056638	      4.54075639	     -5.52390929	      4.40197077	    -10.88654840	      1.08123853	     -8.02007494	     -1.93146065	      0.34056355
      1.31633333	     -0.14297599	      0.55567413	     -0.16015550	      0.30507429	      1.04264471	      0.27232598	     22.66793079	     -2.15289913	     -8.37441222	    -49.39390612	      4.36415010	    -10.64033543	      2.67920418	      1.12662381	      4.96757571	      4.62725662	     -5.25745006	      4.45028242	    -10.98636499	      1.01200031	     -8.05828143	     -1.74401186	      0.30053671
      1.32050000	     -0.18989467	      0.43752818	     -0.15315505	      0.30997193	      1.04284152	      0.27211631	     22.95203092	     -1.97663048	     -8.31464382	    -48.07693226	      4.27636359	    -10.67996419	      2.59267227	      0.77040338	      4.84727144	      4.68043167	     -5.04661737	      4.52966762	    -11.02986077	      0.97987981	     -8.03664100	     -1.55560333	      0.27619612
      1.32466667	     -0.19169084	      0.32944312	     -0.15323200	      0.31488056	      1.04306553	      0.27195169	     23.16073147	     -1.80024343	     -8.24307194	    -46.69039074	      4.04343711	    -10.90327110	      2.43609633	      0.33607108	      4.73621855	      4.79351313	     -4.77366698	      4.59653914	    -11.12096162	      0.92036288	     -8.08343752	     -1.40457136	      0.21580836
      1.32883333	     -0.22240194	      0.22958902	     -0.14005773	      0.31978098	      1.04319354	      0.27177138	     23.37994902	     -1.63948866	     -8.18714888	    -45.26463468	      3.84287348	    -11.05712117	      2.27537139	     -0.04558933	      4.63466894	      4.89259861	     -4.54357815	      4.66066535	    -11.21239869	      0.85822253	     -8.09966924	     -1.25632697	      0.15655734
      1.33300000	     -0.24362201	      0.14720062	     -0.12215993	      0.32467708	      1.04328032	      0.27158598	     23.56786597	     -1.49914742	     -8.13347485	    -43.79533033	      3.63430818	    -11.20041359	      2.11479088	     -0.43021063	      4.55286330	      4.98366333	     -4.32815727	      4.73159051	    -11.28573977	      0.79618519	     -8.11937706	     -1.12063060	      0.09408116
      1.33716667	     -0.27951778	      0.07385708	     -0.09599963	      0.32957906	      1.04328499	      0.27140389	     23.74980654	     -1.37220156	     -8.09567344	    -42.28115360	      3.39893377	    -11.36090532	      1.94341749	     -0.79574312	      4.47977243	      5.07704413	     -4.11865677	      4.80958038	    -11.36003449	      0.73007622	     -8.12765846	     -1.00136254	      0.01892360
      1.34133333	     -0.31820626	      0.01395193	     -0.06136564	      0.33449344	      1.04323439	      0.27121582	     23.91162702	     -1.26469712	     -8.07557858	    -40.72474334	      3.15838492	    -11.51426481	      1.76581352	     -1.15369306	      4.42129341	      5.16983506	     -3.91993761	      4.89222097	    -11.42486653	      0.66104323	     -8.13047909	     -0.90038152	     -0.06283753
      1.34550000	     -0.38771935	     -0.04693965	     -0.01443212	      0.33941735	      1.04307920	      0.27100956	     24.08615140	     -1.16728810	     -8.09120207	    -39.13571102	      2.96168485	    -11.57272646	      1.64860090	     -1.46169438	      4.36154008	      5.23780291	     -3.75544148	      4.99064762	    -11.46131150	      0.61725780	     -8.10512963	     -0.78921957	     -0.12156981
      1.34966667	     -0.41168897	     -0.07528718	      0.04362256	      0.34435741	      1.04296848	      0.27082372	     24.18059183	     -1.09591395	     -8.09051435	    -37.48873927	      2.71897146	    -11.74802858	      0.51638010	     -1.86192987	      4.33990629	      5.48753082	     -3.50168288	      4.94467825	    -11.76957103	      0.11382059	     -8.11228586	     -0.72542736	     -0.32408624
      1.35383333	     -0.46480719	     -0.12135515	      0.10560696	      0.34931375	      1.04275051	      0.27061535	     24.28569620	     -1.02013374	     -8.14195655	    -35.80746517	      2.49390944	    -11.78182714	      0.43851200	     -2.16988480	      4.29263463	      5.49431337	     -3.38000547	      5.13598975	    -11.67736119	      0.08853813	     -8.10328360	     -0.63770197	     -0.33610066
